<svg width="20" height="15" viewBox="0 0 20 15" fill="none" xmlns="http://www.w3.org/2000/svg">
    <path d="M14.0594 1.00671C14.0594 0.739715 14.1637 0.483654 14.3494 0.294859C14.5351 0.106064 14.7869 0 15.0495 0C15.6802 0 16.299 0.128859 16.902 0.374497C17.5584 0.641275 18.0634 1.03691 18.5218 1.50201C18.9802 1.96913 19.3693 2.48255 19.6317 3.15C19.8733 3.76309 20 4.39228 20 5.03356C20 5.67483 19.8733 6.30403 19.6317 6.91711C19.3733 7.57651 18.9901 8.0849 18.5386 8.54698L17.5644 9.63725C17.5537 9.64893 17.5428 9.66034 17.5317 9.67148L14.3634 12.893C13.905 13.3591 13.4 13.7547 12.7436 14.0225C12.1553 14.2664 11.5264 14.3932 10.8911 14.396C10.2557 14.3929 9.62683 14.2657 9.03861 14.0215C8.38218 13.7547 7.87723 13.3591 7.41881 12.894C6.9604 12.4268 6.57129 11.9134 6.30891 11.246C6.0593 10.6155 5.93415 9.94132 5.94059 9.26175C5.94059 8.62047 6.06733 7.99128 6.30891 7.37819C6.57129 6.71074 6.9604 6.19732 7.41782 5.73121L8.50693 4.62383C8.59886 4.53029 8.708 4.45608 8.82813 4.40544C8.94826 4.35479 9.07703 4.3287 9.20708 4.32866C9.33712 4.32861 9.46591 4.35461 9.58607 4.40517C9.70624 4.45573 9.81544 4.52985 9.90743 4.62332C9.99942 4.71679 10.0724 4.82776 10.1222 4.94991C10.172 5.07206 10.1977 5.20298 10.1977 5.33522C10.1978 5.46744 10.1722 5.59839 10.1225 5.72057C10.0728 5.84275 9.99985 5.95378 9.90792 6.04732L8.81881 7.1547C8.48515 7.49396 8.2802 7.78591 8.14752 8.12517C8.00078 8.48568 7.9238 8.87159 7.92079 9.26175C7.92079 9.74094 7.99703 10.1175 8.14752 10.499C8.2802 10.8383 8.48515 11.1302 8.81881 11.4695C9.15247 11.8087 9.4396 12.0171 9.77327 12.152C10.1604 12.3101 10.5317 12.3826 10.8911 12.3826C11.2505 12.3826 11.6218 12.3101 12.0089 12.152C12.3426 12.0171 12.6297 11.8087 12.9634 11.4695L16.1148 8.2651L17.0891 7.17483C17.0997 7.16315 17.1106 7.15174 17.1218 7.1406C17.4554 6.80134 17.6604 6.5094 17.7931 6.17013C17.9485 5.77651 18.0198 5.39899 18.0198 5.03356C18.0198 4.66812 17.9485 4.2906 17.7931 3.89698C17.6604 3.55772 17.4554 3.26577 17.1218 2.92651C16.7881 2.58725 16.501 2.37886 16.1673 2.24295C15.8127 2.09409 15.4332 2.01616 15.0495 2.01342C14.7869 2.01342 14.5351 1.90736 14.3494 1.71856C14.1637 1.52977 14.0594 1.27371 14.0594 1.00671ZM9.20792 2.51678C8.84851 2.51678 8.47723 2.58926 8.0901 2.74631C7.75643 2.88222 7.46931 3.0906 7.13564 3.43087L3.88515 6.7349L2.91089 7.82517L2.87822 7.8594C2.54455 8.19866 2.3396 8.4906 2.20594 8.82987C2.05954 9.19045 1.98289 9.57635 1.9802 9.96644C1.9802 10.3319 2.05149 10.7094 2.20594 11.103C2.3396 11.4423 2.54455 11.7342 2.87921 12.0735C3.21188 12.4128 3.49901 12.6211 3.83267 12.757C4.2198 12.9141 4.59109 12.9866 4.95049 12.9866C5.21309 12.9866 5.46492 13.0926 5.6506 13.2814C5.83628 13.4702 5.94059 13.7263 5.94059 13.9933C5.94059 14.2603 5.83628 14.5163 5.6506 14.7051C5.46492 14.8939 5.21309 15 4.95049 15C4.31518 14.9972 3.6863 14.8705 3.09802 14.6265C2.44158 14.3587 1.93663 13.9631 1.47822 13.497C1.0198 13.0309 0.630693 12.5175 0.368317 11.85C0.128081 11.2519 0.00304431 10.6125 0 9.96644C0 9.32517 0.126733 8.69597 0.368317 8.08289C0.626733 7.42349 1.0099 6.9151 1.46139 6.45302L2.43564 5.36275L2.46832 5.32852L5.73564 2.00638C6.19406 1.54027 6.69901 1.14463 7.35544 0.877853C7.94366 0.633586 8.57254 0.506451 9.20792 0.503356C9.83861 0.503356 10.4574 0.632215 11.0604 0.877853C11.7168 1.14463 12.2218 1.54027 12.6802 2.00537C13.1386 2.47248 13.5277 2.98591 13.7901 3.65336C14.0317 4.26644 14.1584 4.89564 14.1584 5.53691C14.1584 6.17819 14.0317 6.80738 13.7901 7.42047C13.5307 8.07987 13.1475 8.59027 12.696 9.05134L11.6208 10.2443C11.4433 10.4411 11.1962 10.5581 10.9338 10.5696C10.6714 10.5811 10.4153 10.4862 10.2218 10.3057C10.0283 10.1252 9.91317 9.87395 9.90184 9.60718C9.89051 9.34042 9.98387 9.08 10.1614 8.88322L11.2505 7.67517L11.2802 7.64396C11.6139 7.3047 11.8188 7.01275 11.9515 6.67349C12.1069 6.27987 12.1782 5.90235 12.1782 5.53691C12.1782 5.17148 12.1069 4.79396 11.9515 4.40034C11.8188 4.06107 11.6139 3.76913 11.2802 3.42987C10.9465 3.0906 10.6594 2.88222 10.3257 2.74631C9.97111 2.59745 9.59157 2.51951 9.20792 2.51678Z" fill="#060606"/>
</svg>
